<?xml version="1.0" encoding="UTF-8"?>
<svg width="73px" height="82px" viewBox="0 0 73 82" version="1.1" xmlns="http://www.w3.org/2000/svg" xmlns:xlink="http://www.w3.org/1999/xlink">
    <!-- Generator: Sketch 47.1 (45422) - http://www.bohemiancoding.com/sketch -->
    <title>Group 30</title>
    <desc>Created with Sketch.</desc>
    <defs>
        <filter x="-5.4%" y="-6.0%" width="110.8%" height="116.8%" filterUnits="objectBoundingBox" id="filter-1">
            <feOffset dx="0" dy="10" in="SourceAlpha" result="shadowOffsetOuter1"></feOffset>
            <feGaussianBlur stdDeviation="10" in="shadowOffsetOuter1" result="shadowBlurOuter1"></feGaussianBlur>
            <feColorMatrix values="0 0 0 0 0   0 0 0 0 0   0 0 0 0 0  0 0 0 0.1 0" type="matrix" in="shadowBlurOuter1" result="shadowMatrixOuter1"></feColorMatrix>
            <feMerge>
                <feMergeNode in="shadowMatrixOuter1"></feMergeNode>
                <feMergeNode in="SourceGraphic"></feMergeNode>
            </feMerge>
        </filter>
    </defs>
    <g id="Page-1" stroke="none" stroke-width="1" fill="none" fill-rule="evenodd">
        <g id="06_Profile-edit-page-Login---onclick-on-question-type-tabs-or-on-Page-tabs-" transform="translate(-332.000000, -301.000000)" stroke="#FFFFFF" fill-rule="nonzero" stroke-width="0.2" fill="#FFFFFF">
            <g id="Group-22" filter="url(#filter-1)" transform="translate(317.000000, 274.000000)">
                <g id="Group-39" transform="translate(30.000000, 30.000000)">
                    <g id="Group-30" transform="translate(19.027568, 28.000000) scale(-1, 1) translate(-19.027568, -28.000000) translate(0.527568, 7.000000)">
                        <path d="M28.4010811,34.6216216 L28.4010811,35.8648649 L28.4010811,35.8648649 C28.4010811,38.6262886 26.1625048,40.8648649 23.4010811,40.8648649 L6.27135135,40.8648649 L6.27135135,40.8648649 C3.5099276,40.8648649 1.27135135,38.6262886 1.27135135,35.8648649 L1.27135135,6.13513514 L1.27135135,6.13513514 C1.27135135,3.37371139 3.5099276,1.13513514 6.27135135,1.13513514 L23.4010811,1.13513514 L23.4010811,1.13513514 C26.1625048,1.13513514 28.4010811,3.37371139 28.4010811,6.13513514 L28.4010811,7.37837838 L29.5362162,7.37837838 L29.5362162,5 L29.5362162,5 C29.5362162,2.23857625 27.29764,-5.07265313e-16 24.5362162,0 L5.13621622,0 L5.13621622,0 C2.37479247,5.07265313e-16 0.136216216,2.23857625 0.136216216,5 L0.136216216,37 L0.136216216,37 C0.136216216,39.7614237 2.37479247,42 5.13621622,42 L24.5362162,42 L24.5362162,42 C27.29764,42 29.5362162,39.7614237 29.5362162,37 L29.5362162,34.6216216 L28.4010811,34.6216216 Z" id="Shape"></path>
                        <polygon id="Shape" points="36.7556757 20.4324324 11.7316216 20.4324324 20.0181081 12.2651351 19.2178378 11.4591892 9.54081081 21 19.2178378 30.5408108 20.0181081 29.7348649 11.7316216 21.5675676 36.7556757 21.5675676"></polygon>
                    </g>
                </g>
            </g>
        </g>
    </g>
</svg>