<svg width="32" height="32" viewBox="0 0 32 32" fill="none" xmlns="http://www.w3.org/2000/svg">
<path d="M15.897 0H15.896C7.11688 0 0 7.11688 0 15.896V15.897C0 24.6761 7.11688 31.793 15.896 31.793H15.897C24.6761 31.793 31.793 24.6761 31.793 15.897V15.896C31.793 7.11688 24.6761 0 15.897 0Z" fill="url(#paint0_radial_36_758)"/>
<path d="M15.897 8.53308C18.317 8.53308 18.579 8.53308 19.526 8.58608C20.42 8.63808 20.894 8.79608 21.209 8.90108C21.63 9.05908 21.946 9.26908 22.261 9.58508C22.577 9.90108 22.787 10.2161 22.945 10.6371C23.05 10.9521 23.208 11.4261 23.261 12.3201V15.8971C23.261 18.3171 23.261 18.5791 23.208 19.5261C23.155 20.4201 22.998 20.8941 22.892 21.2091C22.735 21.6301 22.524 21.9461 22.209 22.2611C21.9145 22.5656 21.5549 22.7995 21.157 22.9451C20.841 23.0501 20.367 23.2081 19.473 23.2611H15.897C13.477 23.2611 13.214 23.2611 12.267 23.2081C11.373 23.1551 10.9 22.9981 10.584 22.8921C10.1862 22.7468 9.82658 22.5133 9.532 22.2091C9.22779 21.9145 8.99428 21.5548 8.849 21.1571C8.743 20.8411 8.586 20.3671 8.533 19.4731V15.8971C8.533 13.4771 8.533 13.2141 8.586 12.2671C8.638 11.3731 8.796 10.9001 8.901 10.5841C9.059 10.1641 9.269 9.84808 9.585 9.53208C9.87958 9.22787 10.2392 8.99436 10.637 8.84908C10.952 8.74308 11.426 8.58608 12.32 8.53308H15.897ZM15.897 6.95508C13.477 6.95508 13.162 6.95508 12.215 7.00808C11.268 7.06008 10.637 7.21808 10.058 7.42808C9.45137 7.63939 8.90838 8.00138 8.48 8.48008C8.007 9.00608 7.691 9.48008 7.428 10.0581C7.218 10.6371 7.06 11.2681 7.008 12.2151C6.955 13.1621 6.955 13.4771 6.955 15.8971C6.955 18.3171 6.955 18.6321 7.008 19.5791C7.06 20.5251 7.218 21.1571 7.428 21.7351C7.638 22.3141 7.954 22.8401 8.48 23.3131C8.954 23.7871 9.48 24.1031 10.058 24.3651C10.637 24.5751 11.268 24.7331 12.215 24.7851C13.162 24.8381 13.477 24.8381 15.897 24.8381C18.317 24.8381 18.632 24.8381 19.579 24.7861C20.525 24.7331 21.157 24.5761 21.735 24.3661C22.3417 24.1545 22.8847 23.7921 23.313 23.3131C23.787 22.8401 24.103 22.3131 24.365 21.7351C24.575 21.1571 24.733 20.5251 24.785 19.5791C24.838 18.6321 24.838 18.3161 24.838 15.8971C24.838 13.4771 24.838 13.1621 24.786 12.2151C24.733 11.2681 24.576 10.6371 24.366 10.0581C24.1544 9.45134 23.7921 8.90834 23.313 8.48008C22.787 8.00708 22.313 7.69108 21.735 7.42808C21.157 7.21808 20.525 7.06008 19.579 7.00808C18.632 6.95508 18.315 6.95508 15.897 6.95508Z" fill="white"/>
<path d="M15.897 11.1631C14.6398 11.1579 13.4326 11.6549 12.5437 12.5439C11.6547 13.4328 11.1577 14.64 11.1629 15.8972C11.1577 17.1544 11.6547 18.3616 12.5437 19.2506C13.4326 20.1395 14.6398 20.6366 15.897 20.6313C17.1542 20.6366 18.3614 20.1395 19.2503 19.2506C20.1393 18.3616 20.6363 17.1544 20.6311 15.8972C20.6363 14.64 20.1393 13.4328 19.2503 12.5439C18.3614 11.6549 17.1542 11.1579 15.897 11.1631ZM15.897 19.0532C14.156 19.0483 12.7459 17.6382 12.741 15.8972C12.7459 14.1563 14.156 12.7462 15.897 12.7412C17.638 12.7462 19.0481 14.1563 19.053 15.8972C19.0481 17.6382 17.638 19.0483 15.897 19.0532Z" fill="white"/>
<path d="M20.631 12.2148C21.212 12.2148 21.683 11.7438 21.683 11.1628C21.683 10.5818 21.212 10.1108 20.631 10.1108C20.05 10.1108 19.579 10.5818 19.579 11.1628C19.579 11.7438 20.05 12.2148 20.631 12.2148Z" fill="white"/>
<defs>
<radialGradient id="paint0_radial_36_758" cx="0" cy="0" r="1" gradientUnits="userSpaceOnUse" gradientTransform="translate(948.703 3528.36) scale(4365.91)">
<stop stop-color="#EACC7B"/>
<stop offset="0.184" stop-color="#ECAA59"/>
<stop offset="0.307" stop-color="#EF802E"/>
<stop offset="0.358" stop-color="#EF6D3A"/>
<stop offset="0.46" stop-color="#F04B50"/>
<stop offset="0.516" stop-color="#F03E58"/>
<stop offset="0.689" stop-color="#DB359E"/>
<stop offset="0.724" stop-color="#CE37A4"/>
<stop offset="0.789" stop-color="#AC3CB4"/>
<stop offset="0.877" stop-color="#7544CF"/>
<stop offset="1" stop-color="#2B4FF2"/>
</radialGradient>
</defs>
</svg>
