<svg width="208" height="52" viewBox="0 0 208 52" fill="none" xmlns="http://www.w3.org/2000/svg">
<rect y="12" width="208" height="40" rx="20" fill="#0D8BF2"/>
<rect x="141" width="45" height="21" rx="10.5" fill="#E7BE1E"/>
<path d="M154.807 14H153.977V6.86133H157.951V7.59375H154.807V10.2109H157.761V10.9385H154.807V14ZM161.071 6.86133C161.657 6.86133 162.141 6.93457 162.521 7.08105C162.906 7.22428 163.192 7.44401 163.381 7.74023C163.57 8.03646 163.664 8.41406 163.664 8.87305C163.664 9.25065 163.596 9.56641 163.459 9.82031C163.322 10.071 163.143 10.2744 162.922 10.4307C162.701 10.5869 162.465 10.7074 162.214 10.792L164.172 14H163.205L161.457 11.0215H159.973V14H159.143V6.86133H161.071ZM161.022 7.5791H159.973V10.3184H161.105C161.688 10.3184 162.116 10.1995 162.39 9.96191C162.666 9.72428 162.805 9.37435 162.805 8.91211C162.805 8.42708 162.658 8.08366 162.365 7.88184C162.076 7.68001 161.628 7.5791 161.022 7.5791ZM169.289 14H165.314V6.86133H169.289V7.59375H166.145V9.90332H169.108V10.626H166.145V13.2676H169.289V14ZM174.846 14H170.871V6.86133H174.846V7.59375H171.701V9.90332H174.665V10.626H171.701V13.2676H174.846V14Z" fill="black"/>
<path d="M55.8203 26.5781C57.2943 26.5781 58.3698 26.8802 59.0469 27.4844C59.724 28.0885 60.0625 28.9349 60.0625 30.0234C60.0625 30.5182 59.9844 30.9896 59.8281 31.4375C59.6771 31.8802 59.4271 32.2734 59.0781 32.6172C58.7292 32.9557 58.2682 33.224 57.6953 33.4219C57.1276 33.6198 56.4271 33.7188 55.5938 33.7188H54.375V38H52.5V26.5781H55.8203ZM55.6953 28.1328H54.375V32.1562H55.3984C55.987 32.1562 56.487 32.0885 56.8984 31.9531C57.3099 31.8125 57.6224 31.5911 57.8359 31.2891C58.0495 30.987 58.1562 30.5885 58.1562 30.0938C58.1562 29.4323 57.9557 28.9401 57.5547 28.6172C57.1589 28.2943 56.5391 28.1328 55.6953 28.1328ZM69.8125 33.6562C69.8125 34.375 69.7188 35.013 69.5312 35.5703C69.3438 36.1276 69.0703 36.599 68.7109 36.9844C68.3516 37.3646 67.9193 37.6562 67.4141 37.8594C66.9089 38.0573 66.3385 38.1562 65.7031 38.1562C65.1094 38.1562 64.5651 38.0573 64.0703 37.8594C63.5755 37.6562 63.1458 37.3646 62.7812 36.9844C62.4219 36.599 62.1432 36.1276 61.9453 35.5703C61.7474 35.013 61.6484 34.375 61.6484 33.6562C61.6484 32.7031 61.8125 31.8958 62.1406 31.2344C62.474 30.5677 62.9479 30.0599 63.5625 29.7109C64.1771 29.362 64.9089 29.1875 65.7578 29.1875C66.5547 29.1875 67.2578 29.362 67.8672 29.7109C68.4766 30.0599 68.9531 30.5677 69.2969 31.2344C69.6406 31.901 69.8125 32.7083 69.8125 33.6562ZM63.5391 33.6562C63.5391 34.2865 63.6146 34.8255 63.7656 35.2734C63.9219 35.7214 64.1615 36.0651 64.4844 36.3047C64.8073 36.5391 65.224 36.6562 65.7344 36.6562C66.2448 36.6562 66.6615 36.5391 66.9844 36.3047C67.3073 36.0651 67.5443 35.7214 67.6953 35.2734C67.8464 34.8255 67.9219 34.2865 67.9219 33.6562C67.9219 33.026 67.8464 32.4922 67.6953 32.0547C67.5443 31.612 67.3073 31.276 66.9844 31.0469C66.6615 30.8125 66.2422 30.6953 65.7266 30.6953C64.9661 30.6953 64.4115 30.9505 64.0625 31.4609C63.7135 31.9714 63.5391 32.7031 63.5391 33.6562ZM77.7344 35.5312C77.7344 36.099 77.5964 36.5781 77.3203 36.9688C77.0443 37.3594 76.6406 37.6562 76.1094 37.8594C75.5833 38.0573 74.9375 38.1562 74.1719 38.1562C73.5677 38.1562 73.0469 38.112 72.6094 38.0234C72.1771 37.9401 71.7682 37.8099 71.3828 37.6328V36.0469C71.7943 36.2396 72.2552 36.4062 72.7656 36.5469C73.2812 36.6875 73.7682 36.7578 74.2266 36.7578C74.8307 36.7578 75.2656 36.6641 75.5312 36.4766C75.7969 36.2839 75.9297 36.0286 75.9297 35.7109C75.9297 35.5234 75.875 35.3568 75.7656 35.2109C75.6615 35.0599 75.4635 34.9062 75.1719 34.75C74.8854 34.5885 74.4635 34.3958 73.9062 34.1719C73.3594 33.9531 72.8984 33.7344 72.5234 33.5156C72.1484 33.2969 71.8646 33.0339 71.6719 32.7266C71.4792 32.4141 71.3828 32.0156 71.3828 31.5312C71.3828 30.7656 71.6849 30.1849 72.2891 29.7891C72.8984 29.388 73.7031 29.1875 74.7031 29.1875C75.2344 29.1875 75.7344 29.2422 76.2031 29.3516C76.6771 29.4557 77.1406 29.6094 77.5938 29.8125L77.0156 31.1953C76.625 31.0234 76.2318 30.8828 75.8359 30.7734C75.4453 30.6589 75.0469 30.6016 74.6406 30.6016C74.1667 30.6016 73.8047 30.6745 73.5547 30.8203C73.3099 30.9661 73.1875 31.1745 73.1875 31.4453C73.1875 31.6484 73.2474 31.8203 73.3672 31.9609C73.487 32.1016 73.6927 32.2422 73.9844 32.3828C74.2812 32.5234 74.6927 32.6979 75.2188 32.9062C75.7344 33.1042 76.1797 33.3125 76.5547 33.5312C76.9349 33.7448 77.2266 34.0078 77.4297 34.3203C77.6328 34.6328 77.7344 35.0365 77.7344 35.5312ZM82.9375 36.6719C83.1771 36.6719 83.4141 36.651 83.6484 36.6094C83.8828 36.5625 84.0964 36.5078 84.2891 36.4453V37.8359C84.0859 37.9245 83.8229 38 83.5 38.0625C83.1771 38.125 82.8411 38.1562 82.4922 38.1562C82.0026 38.1562 81.5625 38.0755 81.1719 37.9141C80.7812 37.7474 80.4714 37.4635 80.2422 37.0625C80.013 36.6615 79.8984 36.1068 79.8984 35.3984V30.75H78.7188V29.9297L79.9844 29.2812L80.5859 27.4297H81.7422V29.3516H84.2188V30.75H81.7422V35.375C81.7422 35.8125 81.8516 36.138 82.0703 36.3516C82.2891 36.5651 82.5781 36.6719 82.9375 36.6719ZM93.7109 26.5781C95.1849 26.5781 96.2604 26.8802 96.9375 27.4844C97.6146 28.0885 97.9531 28.9349 97.9531 30.0234C97.9531 30.5182 97.875 30.9896 97.7188 31.4375C97.5677 31.8802 97.3177 32.2734 96.9688 32.6172C96.6198 32.9557 96.1589 33.224 95.5859 33.4219C95.0182 33.6198 94.3177 33.7188 93.4844 33.7188H92.2656V38H90.3906V26.5781H93.7109ZM93.5859 28.1328H92.2656V32.1562H93.2891C93.8776 32.1562 94.3776 32.0885 94.7891 31.9531C95.2005 31.8125 95.513 31.5911 95.7266 31.2891C95.9401 30.987 96.0469 30.5885 96.0469 30.0938C96.0469 29.4323 95.8464 28.9401 95.4453 28.6172C95.0495 28.2943 94.4297 28.1328 93.5859 28.1328ZM104.43 29.1875C104.576 29.1875 104.734 29.1953 104.906 29.2109C105.078 29.2266 105.227 29.2474 105.352 29.2734L105.18 30.9922C105.07 30.9609 104.935 30.9375 104.773 30.9219C104.617 30.9062 104.477 30.8984 104.352 30.8984C104.023 30.8984 103.711 30.9531 103.414 31.0625C103.117 31.1667 102.854 31.3281 102.625 31.5469C102.396 31.7604 102.216 32.0286 102.086 32.3516C101.956 32.6745 101.891 33.0495 101.891 33.4766V38H100.047V29.3516H101.484L101.734 30.875H101.82C101.992 30.5677 102.206 30.2865 102.461 30.0312C102.716 29.776 103.008 29.5729 103.336 29.4219C103.669 29.2656 104.034 29.1875 104.43 29.1875ZM114.609 33.6562C114.609 34.375 114.516 35.013 114.328 35.5703C114.141 36.1276 113.867 36.599 113.508 36.9844C113.148 37.3646 112.716 37.6562 112.211 37.8594C111.706 38.0573 111.135 38.1562 110.5 38.1562C109.906 38.1562 109.362 38.0573 108.867 37.8594C108.372 37.6562 107.943 37.3646 107.578 36.9844C107.219 36.599 106.94 36.1276 106.742 35.5703C106.544 35.013 106.445 34.375 106.445 33.6562C106.445 32.7031 106.609 31.8958 106.938 31.2344C107.271 30.5677 107.745 30.0599 108.359 29.7109C108.974 29.362 109.706 29.1875 110.555 29.1875C111.352 29.1875 112.055 29.362 112.664 29.7109C113.273 30.0599 113.75 30.5677 114.094 31.2344C114.438 31.901 114.609 32.7083 114.609 33.6562ZM108.336 33.6562C108.336 34.2865 108.411 34.8255 108.562 35.2734C108.719 35.7214 108.958 36.0651 109.281 36.3047C109.604 36.5391 110.021 36.6562 110.531 36.6562C111.042 36.6562 111.458 36.5391 111.781 36.3047C112.104 36.0651 112.341 35.7214 112.492 35.2734C112.643 34.8255 112.719 34.2865 112.719 33.6562C112.719 33.026 112.643 32.4922 112.492 32.0547C112.341 31.612 112.104 31.276 111.781 31.0469C111.458 30.8125 111.039 30.6953 110.523 30.6953C109.763 30.6953 109.208 30.9505 108.859 31.4609C108.51 31.9714 108.336 32.7031 108.336 33.6562ZM121.156 29.1875C122.182 29.1875 123.005 29.5625 123.625 30.3125C124.25 31.0625 124.562 32.1771 124.562 33.6562C124.562 34.6354 124.417 35.4609 124.125 36.1328C123.839 36.7995 123.435 37.3047 122.914 37.6484C122.398 37.987 121.797 38.1562 121.109 38.1562C120.672 38.1562 120.292 38.099 119.969 37.9844C119.646 37.8698 119.37 37.7214 119.141 37.5391C118.911 37.3516 118.719 37.1484 118.562 36.9297H118.453C118.479 37.138 118.503 37.3698 118.523 37.625C118.549 37.875 118.562 38.1042 118.562 38.3125V41.8359H116.719V29.3516H118.219L118.477 30.5469H118.562C118.724 30.3021 118.919 30.0755 119.148 29.8672C119.383 29.6589 119.664 29.4948 119.992 29.375C120.326 29.25 120.714 29.1875 121.156 29.1875ZM120.664 30.6875C120.159 30.6875 119.753 30.7891 119.445 30.9922C119.143 31.1901 118.922 31.4896 118.781 31.8906C118.646 32.2917 118.573 32.7943 118.562 33.3984V33.6562C118.562 34.2969 118.628 34.8411 118.758 35.2891C118.893 35.7318 119.115 36.0703 119.422 36.3047C119.734 36.5339 120.156 36.6484 120.688 36.6484C121.135 36.6484 121.505 36.526 121.797 36.2812C122.094 36.0365 122.315 35.6875 122.461 35.2344C122.607 34.7812 122.68 34.2474 122.68 33.6328C122.68 32.7005 122.513 31.9766 122.18 31.4609C121.852 30.9453 121.346 30.6875 120.664 30.6875ZM130.133 29.1875C130.904 29.1875 131.565 29.3464 132.117 29.6641C132.669 29.9818 133.094 30.4323 133.391 31.0156C133.688 31.599 133.836 32.2969 133.836 33.1094V34.0938H128.062C128.083 34.9323 128.307 35.5781 128.734 36.0312C129.167 36.4844 129.771 36.7109 130.547 36.7109C131.099 36.7109 131.594 36.6589 132.031 36.5547C132.474 36.4453 132.93 36.2865 133.398 36.0781V37.5703C132.966 37.7734 132.526 37.9219 132.078 38.0156C131.63 38.1094 131.094 38.1562 130.469 38.1562C129.62 38.1562 128.872 37.9922 128.227 37.6641C127.586 37.3307 127.083 36.8359 126.719 36.1797C126.359 35.5234 126.18 34.7083 126.18 33.7344C126.18 32.7656 126.344 31.9427 126.672 31.2656C127 30.5885 127.461 30.0729 128.055 29.7188C128.648 29.3646 129.341 29.1875 130.133 29.1875ZM130.133 30.5703C129.555 30.5703 129.086 30.7578 128.727 31.1328C128.372 31.5078 128.164 32.0573 128.102 32.7812H132.039C132.034 32.349 131.961 31.9661 131.82 31.6328C131.685 31.2995 131.477 31.0391 131.195 30.8516C130.919 30.6641 130.565 30.5703 130.133 30.5703ZM140.289 29.1875C140.435 29.1875 140.594 29.1953 140.766 29.2109C140.938 29.2266 141.086 29.2474 141.211 29.2734L141.039 30.9922C140.93 30.9609 140.794 30.9375 140.633 30.9219C140.477 30.9062 140.336 30.8984 140.211 30.8984C139.883 30.8984 139.57 30.9531 139.273 31.0625C138.977 31.1667 138.714 31.3281 138.484 31.5469C138.255 31.7604 138.076 32.0286 137.945 32.3516C137.815 32.6745 137.75 33.0495 137.75 33.4766V38H135.906V29.3516H137.344L137.594 30.875H137.68C137.852 30.5677 138.065 30.2865 138.32 30.0312C138.576 29.776 138.867 29.5729 139.195 29.4219C139.529 29.2656 139.893 29.1875 140.289 29.1875ZM146.031 36.6719C146.271 36.6719 146.508 36.651 146.742 36.6094C146.977 36.5625 147.19 36.5078 147.383 36.4453V37.8359C147.18 37.9245 146.917 38 146.594 38.0625C146.271 38.125 145.935 38.1562 145.586 38.1562C145.096 38.1562 144.656 38.0755 144.266 37.9141C143.875 37.7474 143.565 37.4635 143.336 37.0625C143.107 36.6615 142.992 36.1068 142.992 35.3984V30.75H141.812V29.9297L143.078 29.2812L143.68 27.4297H144.836V29.3516H147.312V30.75H144.836V35.375C144.836 35.8125 144.945 36.138 145.164 36.3516C145.383 36.5651 145.672 36.6719 146.031 36.6719ZM147.836 29.3516H149.836L151.609 34.2891C151.688 34.513 151.758 34.7344 151.82 34.9531C151.888 35.1667 151.945 35.3776 151.992 35.5859C152.044 35.7943 152.086 36.0026 152.117 36.2109H152.164C152.216 35.9401 152.289 35.638 152.383 35.3047C152.482 34.9661 152.591 34.6276 152.711 34.2891L154.414 29.3516H156.391L152.68 39.1875C152.466 39.75 152.203 40.2292 151.891 40.625C151.583 41.026 151.219 41.3281 150.797 41.5312C150.375 41.7396 149.893 41.8438 149.352 41.8438C149.091 41.8438 148.865 41.8281 148.672 41.7969C148.479 41.7708 148.315 41.7422 148.18 41.7109V40.2422C148.289 40.2682 148.427 40.2917 148.594 40.3125C148.76 40.3333 148.932 40.3438 149.109 40.3438C149.438 40.3438 149.721 40.2786 149.961 40.1484C150.201 40.0182 150.404 39.8333 150.57 39.5938C150.737 39.3594 150.875 39.0911 150.984 38.7891L151.289 37.9766L147.836 29.3516Z" fill="white"/>
</svg>
