<svg width="24" height="22" viewBox="0 0 24 22" fill="none" xmlns="http://www.w3.org/2000/svg">
<path d="M15.2578 12.5949H14.4801L14.2045 12.3586C14.8197 11.7233 15.2693 10.975 15.5211 10.1673C15.773 9.3595 15.8209 8.51224 15.6614 7.68611C15.1987 5.25361 12.915 3.31111 10.1587 3.01361C9.1897 2.90464 8.20549 2.99416 7.2814 3.27531C6.3573 3.55646 5.51781 4.0218 4.82716 4.63571C4.13651 5.24962 3.61301 5.99584 3.29671 6.81725C2.98042 7.63867 2.87971 8.51352 3.0023 9.37486C3.33698 11.8249 5.5223 13.8549 8.25886 14.2661C9.18826 14.4079 10.1414 14.3653 11.0502 14.1415C11.9589 13.9176 12.8007 13.5179 13.5154 12.9711L13.7812 13.2161V13.9074L17.9648 17.6261C18.3684 17.9849 19.0279 17.9849 19.4315 17.6261C19.8351 17.2674 19.8351 16.6811 19.4315 16.3224L15.2578 12.5949ZM9.35151 12.5949C6.90042 12.5949 4.92183 10.8361 4.92183 8.65736C4.92183 6.47861 6.90042 4.71986 9.35151 4.71986C11.8026 4.71986 13.7812 6.47861 13.7812 8.65736C13.7812 10.8361 11.8026 12.5949 9.35151 12.5949Z" fill="white"/>
</svg>
